PathFileType	4	(X/Y/Z)	C:\Users\Basilio\Documents\Thesis Gigler\squatting_fais\c3dfiles\054\SLS_front_pre1\markers_experimental.trc
DataRate	CameraRate	NumFrames	NumMarkers	Units	OrigDataRate	OrigDataStartFrame	OrigNumFrames
200.000000	200.000000	4	61	mm	200.000000	671	1342
Frame#	Time	FHD			LBHD			RBHD			C7			T10			CLAV			LSHO			LUUPA			LMUPA			LDUPA			LLEP			LMEP			LRAD			LUL			LRFIN			RSHO			RUPA1			RMUPA			RDUPA			RLEP			RMEP			RRAD			RUL			RUFIN			LASI			RASI			USACR			LSACR			RSACR			LTHI1			LTHI2			LTHI3			LTHI4			LLFC			LMFC			LTIB1			LTIB2			LTIB3			LTIB4			LLMAL			LMMAL			LHEE			LMT1			LMT2			LMT5			RTHI			RTHI2			RTHI3			RTHI4			RLFC			RMFC			RTIB1			RTIB2			RTIB3			RTIB4			RLMAL			RMMAL			RHEE			RMT1			RMT2			RMT5			
		X1	Y1	Z1	X2	Y2	Z2	X3	Y3	Z3	X4	Y4	Z4	X5	Y5	Z5	X6	Y6	Z6	X7	Y7	Z7	X8	Y8	Z8	X9	Y9	Z9	X10	Y10	Z10	X11	Y11	Z11	X12	Y12	Z12	X13	Y13	Z13	X14	Y14	Z14	X15	Y15	Z15	X16	Y16	Z16	X17	Y17	Z17	X18	Y18	Z18	X19	Y19	Z19	X20	Y20	Z20	X21	Y21	Z21	X22	Y22	Z22	X23	Y23	Z23	X24	Y24	Z24	X25	Y25	Z25	X26	Y26	Z26	X27	Y27	Z27	X28	Y28	Z28	X29	Y29	Z29	X30	Y30	Z30	X31	Y31	Z31	X32	Y32	Z32	X33	Y33	Z33	X34	Y34	Z34	X35	Y35	Z35	X36	Y36	Z36	X37	Y37	Z37	X38	Y38	Z38	X39	Y39	Z39	X40	Y40	Z40	X41	Y41	Z41	X42	Y42	Z42	X43	Y43	Z43	X44	Y44	Z44	X45	Y45	Z45	X46	Y46	Z46	X47	Y47	Z47	X48	Y48	Z48	X49	Y49	Z49	X50	Y50	Z50	X51	Y51	Z51	X52	Y52	Z52	X53	Y53	Z53	X54	Y54	Z54	X55	Y55	Z55	X56	Y56	Z56	X57	Y57	Z57	X58	Y58	Z58	X59	Y59	Z59	X60	Y60	Z60	X61	Y61	Z61	

672	3.355	-169.4232482910157	1516.368041992188	-1104.465454101563	-332.3072509765626	1469.219116210938	-1176.508911132813	-349.9726257324219	1468.669189453125	-1036.926391601563	-393.1699523925782	1324.547607421875	-1092.315795898438	-520.6666259765626	1018.412719726563	-1076.224487304688	-267.9310913085938	1235.11328125	-1107.06884765625	-311.6968994140626	1321.031860351563	-1243.006103515625	-169.7532501220703	1203.732788085938	-1372.518188476563	-135.426986694336	1236.033203125	-1358.320434570313	-102.2030334472657	1192.552490234375	-1383.383666992188	-44.91819763183594	1193.611328125	-1381.729248046875	-45.7740707397461	1126.264282226563	-1338.642700195313	213.5825958251954	1199.51318359375	-1311.199096679688	225.6132049560547	1169.902221679688	-1381.438598632813	305.1375732421876	1215.619384765625	-1331.054321289063	-299.4540405273438	1311.64794921875	-961.494812011719	-148.5004272460938	1211.6025390625	-830.3948364257815	-114.9319000244141	1243.344482421875	-843.296569824219	-80.11456298828126	1199.214721679688	-818.5341796875002	-35.45267486572266	1196.497680664063	-819.9016723632815	-34.91327667236329	1138.206787109375	-868.0794067382815	225.3808288574219	1267.20361328125	-916.5317382812502	231.9733276367188	1226.387573242188	-848.2720947265627	300.9860229492188	1298.0537109375	-899.4481201171877	-382.2489929199219	819.3398437500002	-1185.398071289063	-359.3706054687501	858.3242797851565	-938.6104736328127	-548.3131713867189	920.7752685546877	-1059.442260742188	-558.9962768554689	885.8254394531252	-1083.497802734375	-552.0818481445314	891.603698730469	-1026.784912109375	-340.7312927246094	612.1121215820314	-1249.993041992188	-258.9832763671876	586.1916503906251	-1250.18212890625	-230.2189331054688	623.8288574218751	-1248.286376953125	-235.8056793212891	532.4935302734376	-1233.37158203125	-134.1515045166016	443.3919982910157	-1205.911499023438	-102.7782897949219	475.3141479492189	-1073.593994140625	-145.0798492431641	304.5689392089844	-1116.261596679688	-209.0238952636719	269.3171386718751	-1167.186401367188	-178.3648376464844	260.1782531738282	-1137.538818359375	-218.9534301757813	206.1894683837891	-1086.317138671875	-337.7998962402344	106.8465347290039	-1105.980590820313	-300.1953430175782	137.5849609375	-1017.990844726563	-407.8071899414064	105.4453582763672	-1040.588134765625	-198.5859832763672	59.82775878906251	-1019.440673828125	-189.7941436767578	54.46145248413087	-1068.510620117188	-242.6187438964844	37.55508422851563	-1118.364990234375	-229.1515045166016	670.7375488281251	-839.2158203125002	-163.0991821289063	680.7020263671876	-846.946960449219	-149.0406036376953	709.0808715820314	-858.3640747070315	-107.7302856445313	618.8132324218751	-860.9581298828127	-53.02952575683595	561.5701904296876	-872.5405273437502	-29.96502304077149	592.7692260742189	-1000.589050292969	31.69405937194825	482.3442687988282	-886.4299926757815	-15.1673812866211	389.4413146972657	-859.823181152344	29.55967903137208	395.9036865234376	-871.5369873046877	56.34148025512697	354.9404296875001	-900.7622070312502	43.33063125610352	171.0819396972657	-895.5555419921877	81.29725646972658	198.0770568847657	-979.5460205078127	1.687260627746582	119.8688430786133	-959.253601074219	219.8488006591797	162.4752502441407	-948.4295654296877	217.0917968750001	172.8438262939453	-901.4578857421877	169.7171325683594	142.8219604492188	-857.0639648437502	
673	3.36	-169.3153228759766	1515.128173828125	-1104.6298828125	-332.0513916015626	1468.14453125	-1176.659912109375	-350.0643920898438	1467.354736328125	-1037.152954101563	-392.9752197265626	1323.507446289063	-1092.579833984375	-520.6555786132814	1017.458251953125	-1076.205200195313	-267.9161987304688	1233.851196289063	-1107.322631835938	-311.5847167968751	1320.119140625	-1243.234985351563	-169.6595306396485	1203.014404296875	-1372.544921875	-135.3730010986328	1235.0576171875	-1358.428466796875	-101.6871871948242	1191.627563476563	-1383.504028320313	-44.64378738403321	1192.85791015625	-1381.812377929688	-45.62800979614259	1125.497924804688	-1338.648803710938	213.9316864013672	1198.896240234375	-1311.030151367188	226.5571746826172	1169.366821289063	-1381.327026367188	305.2465515136719	1215.4462890625	-1330.831176757813	-299.1694641113282	1310.584716796875	-961.6214599609377	-148.4800262451172	1210.43408203125	-830.8726196289065	-114.4101791381836	1242.139892578125	-843.7070922851565	-79.85482788085939	1198.18994140625	-818.7385253906252	-35.08100509643555	1195.30517578125	-821.1489868164065	-34.32221984863282	1136.884399414063	-868.525329589844	225.6759643554688	1266.265625	-916.761657714844	232.0575256347657	1225.494506835938	-848.474304199219	301.2932128906251	1297.139404296875	-899.6480102539065	-382.7142028808594	818.3096923828127	-1185.34130859375	-359.5051269531251	857.3006591796877	-938.6157226562502	-548.6388549804689	919.9603271484377	-1059.271850585938	-559.3814086914064	885.0039672851565	-1083.281494140625	-552.2230224609376	890.7442626953127	-1026.609008789063	-340.9777526855469	611.3559570312501	-1250.173828125	-259.3372497558594	585.5947875976564	-1250.375732421875	-230.588851928711	623.3776855468751	-1248.5029296875	-236.0917053222657	531.9901733398439	-1233.753295898438	-134.0773468017578	443.1193237304689	-1206.269653320313	-102.6500854492188	475.1944274902345	-1073.885498046875	-145.094955444336	304.4728393554688	-1116.522583007813	-209.1159820556641	269.1369934082032	-1167.486206054688	-178.4273834228516	260.0740661621094	-1137.779418945313	-219.0330352783204	206.1145935058594	-1086.614379882813	-337.7523498535157	106.7489547729492	-1106.022583007813	-300.2225341796876	137.6329193115235	-1018.084655761719	-407.818328857422	105.4468841552735	-1040.620971679688	-198.598129272461	59.8579444885254	-1019.469543457031	-190.014389038086	54.56761932373048	-1068.37890625	-242.8187408447266	37.56167602539063	-1118.399658203125	-229.1006622314454	670.4345703125001	-839.103698730469	-163.0099487304688	680.4641113281251	-846.9416503906252	-149.0494079589844	708.8875732421876	-858.3422851562502	-107.5697708129883	618.7470092773439	-860.893737792969	-52.548397064209	561.5822753906251	-872.4699707031252	-29.67954444885255	592.6584472656251	-1000.527038574219	32.00421142578126	482.4153137207032	-886.2798461914065	-14.91458606719971	389.4895324707032	-859.606384277344	29.97994422912598	395.9285888671876	-871.2144775390627	56.90741348266603	354.6710205078126	-900.7319946289065	43.60519409179688	170.9997863769532	-895.4694824218752	81.5206985473633	198.2423858642579	-979.5922851562502	1.907205939292908	119.8159484863282	-958.8807373046877	219.945297241211	162.5690002441407	-948.291687011719	217.4198150634766	173.0149688720703	-901.322448730469	170.1627502441407	142.9183502197266	-856.8253173828127	
674	3.365	-169.2018127441407	1514.036499023438	-1104.592651367188	-331.6796569824219	1467.011596679688	-1176.7080078125	-349.7972106933594	1466.348022460938	-1037.291748046875	-392.7691040039064	1322.590576171875	-1092.652465820313	-520.7810058593751	1016.556335449219	-1076.151611328125	-267.8356933593751	1232.717041015625	-1107.529052734375	-311.4477233886719	1319.023681640625	-1243.385864257813	-169.3759155273438	1201.916137695313	-1372.612426757813	-135.2622680664063	1234.1875	-1358.53515625	-101.766845703125	1191.171142578125	-1383.355834960938	-44.02510833740235	1191.822509765625	-1381.703979492188	-44.75671005249024	1124.910766601563	-1338.14013671875	213.9129486083985	1198.51318359375	-1310.826782226563	226.6277770996094	1168.875854492188	-1381.087646484375	305.6697998046876	1215.136962890625	-1330.511108398438	-298.9205627441407	1309.47216796875	-961.7725830078127	-148.1763458251953	1209.544189453125	-831.270446777344	-114.1865615844727	1241.17626953125	-843.8076782226565	-79.39826965332033	1196.984497070313	-818.969177246094	-34.67432403564454	1194.450073242188	-820.7957763671877	-34.04398727416993	1136.206787109375	-868.7968750000002	225.9739837646485	1265.438842773438	-916.8551025390627	232.4634704589844	1224.514526367188	-848.721862792969	301.5057067871094	1296.448974609375	-899.7949829101565	-383.1444396972657	817.6557617187502	-1185.348022460938	-359.5213928222657	856.2160644531252	-938.6156005859377	-548.6860351562501	918.9395751953127	-1059.147583007813	-559.7821655273439	884.0974121093752	-1083.090454101563	-552.4499511718751	889.9160156250002	-1026.443603515625	-341.3413696289063	610.5521240234376	-1250.250854492188	-259.5593566894532	584.9812622070314	-1250.572875976563	-231.0106658935547	622.8829345703126	-1248.666137695313	-236.2852172851563	531.4188842773439	-1233.946533203125	-134.1651763916016	442.9281616210939	-1206.61767578125	-102.5871124267578	475.0020446777345	-1074.264404296875	-144.9542846679688	304.2512512207032	-1116.908935546875	-209.0633239746094	268.9780578613282	-1167.700439453125	-178.4871826171875	259.9415283203126	-1137.987548828125	-219.0539855957032	206.0321197509766	-1086.765625	-337.9366760253907	106.752799987793	-1106.087646484375	-300.2293701171876	137.6153717041016	-1018.17724609375	-407.8018798828126	105.4224624633789	-1040.643920898438	-198.5760040283204	59.92300415039064	-1019.512451171875	-189.7903747558594	54.44224166870119	-1068.556640625	-242.8397521972657	37.50434494018555	-1118.401000976563	-228.9896545410157	670.0796508789064	-838.9986572265627	-162.9559173583985	680.3520507812501	-846.8299560546877	-149.0545043945313	708.7178955078126	-858.3179321289065	-107.4190444946289	618.6769409179689	-860.766296386719	-52.29660034179689	561.5908203125001	-872.3785400390627	-29.42871284484864	592.5683593750001	-1000.427490234375	32.22653961181641	482.4051818847657	-886.1251220703127	-14.61762809753418	389.5521545410157	-859.3799438476565	30.21021461486817	395.8903198242189	-871.0552978515627	57.12060928344728	354.7836608886719	-900.4409790039065	43.73272705078126	171.0148468017578	-895.1538696289065	81.7157440185547	198.1196441650391	-979.1501464843752	2.139942407608033	119.7038726806641	-958.5482177734377	220.1439514160157	162.6631469726563	-948.135681152344	217.322738647461	173.04052734375	-901.1111450195315	170.373275756836	143.0530700683594	-856.5988769531252	
675	3.37	-168.8213958740235	1512.938842773438	-1104.744506835938	-331.5476379394532	1465.994995117188	-1176.848388671875	-349.5535278320313	1465.237426757813	-1037.5400390625	-392.6672363281251	1321.658203125	-1092.706298828125	-521.1989746093751	1015.7041015625	-1075.933837890625	-267.8100891113282	1231.761840820313	-1107.7666015625	-311.4157409667969	1318.085205078125	-1243.566162109375	-169.148193359375	1201.013793945313	-1372.86865234375	-135.0061492919922	1233.296630859375	-1358.593505859375	-101.6417922973633	1190.075439453125	-1383.510498046875	-44.22922134399415	1191.336059570313	-1381.805541992188	-44.91413497924805	1123.967651367188	-1338.646362304688	213.8230590820313	1198.26318359375	-1310.681884765625	226.8610229492188	1168.427001953125	-1380.921752929688	305.8041381835938	1214.861694335938	-1330.309448242188	-298.7914123535157	1308.430908203125	-962.0073852539065	-147.7037353515625	1208.27001953125	-831.3804321289065	-113.9970779418946	1240.152221679688	-844.2185668945315	-79.27394866943361	1196.13134765625	-819.203552246094	-34.30647277832032	1193.46875	-821.2180786132815	-33.79684829711915	1134.986206054688	-869.147888183594	226.2500915527344	1264.600341796875	-917.1133422851565	232.6743927001954	1223.61767578125	-849.018249511719	301.7730712890626	1295.548828125	-900.0100708007815	-383.7019348144532	816.5960693359377	-1185.329467773438	-359.4199523925782	855.4870605468752	-938.9484863281252	-548.9185180664064	918.1663208007815	-1058.933715820313	-559.9497070312501	883.2366333007815	-1082.810546875	-552.5413818359376	888.9880981445315	-1026.2216796875	-341.7224121093751	609.8310546875001	-1250.402099609375	-259.7295837402344	584.3873291015626	-1250.790771484375	-231.4498901367188	622.4058837890626	-1248.893432617188	-236.4146575927735	530.9113769531251	-1234.12451171875	-134.3089599609375	442.6932373046876	-1207.064453125	-102.4554443359375	474.8003540039064	-1074.783081054688	-144.707015991211	304.1538085937501	-1117.33984375	-209.1666107177735	268.8462829589844	-1167.92578125	-178.5526123046875	259.8570251464844	-1138.249145507813	-219.071762084961	205.9738006591797	-1087.045288085938	-337.9179382324219	106.6922836303711	-1106.169189453125	-300.2296752929688	137.6603698730469	-1018.242919921875	-407.8012084960939	105.4087295532227	-1040.633422851563	-198.5824737548829	59.95108795166017	-1019.589599609375	-190.0007019042969	54.47988128662111	-1068.391723632813	-242.7263641357422	37.36922073364259	-1118.459106445313	-228.8979949951172	669.8297729492189	-838.8164672851565	-162.9288787841797	680.2028198242189	-846.7747192382815	-149.0225677490235	708.5397949218751	-858.3598632812502	-107.1784362792969	618.5121459960939	-860.630798339844	-52.0624122619629	561.5871582031251	-872.292175292969	-29.2536849975586	592.4666137695314	-1000.297241210938	32.60374450683594	482.4285888671876	-886.0035400390627	-14.33414459228516	389.5312805175782	-859.1822509765627	30.42545318603516	395.9466552734376	-870.858825683594	57.47104263305665	354.8215026855469	-900.2073974609377	44.0655632019043	170.9156646728516	-895.0180664062502	81.8396453857422	198.1237030029297	-979.080505371094	1.922154188156128	119.8764953613282	-958.0001220703127	221.0912475585938	162.4863586425782	-947.8205566406252	217.5934448242188	173.2317047119141	-900.9744873046877	170.656982421875	143.3030853271485	-856.2495117187502	
